<svg id="Layer_1" data-name="Layer 1" xmlns="http://www.w3.org/2000/svg" viewBox="0 0 41.93 34.02"><defs><style>.cls-1{fill:#c82030;}</style></defs><path class="cls-1" d="M13.8,12.69H0V29.28H6.38V34l6.12-4.74H28.14V16.59h4.39L38,20.8V16.59h4V0H13.8ZM8.62,22.77A1.37,1.37,0,1,1,10,21.4,1.37,1.37,0,0,1,8.62,22.77ZM33.39,6.5A1.38,1.38,0,1,1,32,7.88,1.38,1.38,0,0,1,33.39,6.5Zm-5.56,0a1.38,1.38,0,1,1-1.37,1.38A1.37,1.37,0,0,1,27.83,6.5Zm-5.48,0A1.38,1.38,0,1,1,21,7.88,1.38,1.38,0,0,1,22.35,6.5ZM19.66,20a1.37,1.37,0,1,1-1.37,1.37A1.37,1.37,0,0,1,19.66,20ZM15.48,21.4A1.38,1.38,0,1,1,14.11,20,1.37,1.37,0,0,1,15.48,21.4Z"/></svg>