<svg id="Layer_1" data-name="Layer 1" xmlns="http://www.w3.org/2000/svg" viewBox="0 0 30.52 30.51"><defs><style>.cls-1{fill:#c82030;}</style></defs><path class="cls-1" d="M26.05,26a14.71,14.71,0,0,1-10.79,4.47A14.71,14.71,0,0,1,4.47,26,14.69,14.69,0,0,1,0,15.26,14.71,14.71,0,0,1,4.47,4.47,14.71,14.71,0,0,1,15.26,0,14.71,14.71,0,0,1,26.05,4.47a14.71,14.71,0,0,1,4.47,10.79A14.69,14.69,0,0,1,26.05,26ZM12.16,7.09A5.38,5.38,0,0,0,10,11.62h3.22a3.08,3.08,0,0,1,.54-1.79,2,2,0,0,1,1.85-.89,2.2,2.2,0,0,1,1.85.71,3,3,0,0,1,.47,1.55,2.41,2.41,0,0,1-.41,1.38.57.57,0,0,1-.18.2A2.6,2.6,0,0,0,17,13l-.21.21-.83.66a4.25,4.25,0,0,0-1.49,1.61,11.82,11.82,0,0,0-.36,2.62h3a10.67,10.67,0,0,1,.18-1.31,2.35,2.35,0,0,1,.83-1.2L19,15a6.86,6.86,0,0,0,1.61-1.55A4,4,0,0,0,21.28,11a4.21,4.21,0,0,0-1.67-3.58,7.19,7.19,0,0,0-4.17-1.19A6.24,6.24,0,0,0,12.16,7.09Zm1.91,12.58v3.22h3.28V19.67Z"/></svg>